<?xml version="1.0" standalone="no"?><!DOCTYPE svg PUBLIC "-//W3C//DTD SVG 1.1//EN" "http://www.w3.org/Graphics/SVG/1.1/DTD/svg11.dtd"><svg t="1592548618300" class="icon" viewBox="0 0 1024 1024" version="1.1" xmlns="http://www.w3.org/2000/svg" p-id="633" xmlns:xlink="http://www.w3.org/1999/xlink" width="16" height="16"><defs><style type="text/css"></style></defs><path d="M545.63325238 512.00121363l263.80858407-263.80858406c9.28667572-9.28910299 9.28667572-24.34536304 0-33.63446602-9.28910299-9.28667572-24.34536304-9.28667572-33.63446602 0L511.99878637 478.36917487 248.19020231 214.55816355c-9.28667572-9.28667572-24.34536304-9.28667572-33.63203876 0-9.28667572 9.28910299-9.28910299 24.34536304 0 33.63446602L478.36674762 511.99878637 214.55816355 775.80979769c-9.28910299 9.28667572-9.28910299 24.34536304 0 33.63203876a23.70942233 23.70942233 0 0 0 16.81601938 6.96622072 23.70942233 23.70942233 0 0 0 16.81844664-6.96622072L511.99878637 545.63567965l263.80858406 263.8061568c4.64333846 4.64333846 10.72846529 6.96622073 16.81601938 6.96622072s12.17268091-2.32288225 16.81844664-6.96622072c9.28667572-9.28667572 9.28667572-24.34536304 0-33.63203876L545.63325238 511.99878637z" fill="#e6e6e6" p-id="634"></path></svg>