<?xml version="1.0" standalone="no"?><!DOCTYPE svg PUBLIC "-//W3C//DTD SVG 1.1//EN" "http://www.w3.org/Graphics/SVG/1.1/DTD/svg11.dtd"><svg t="1592548703749" class="icon" viewBox="0 0 1024 1024" version="1.1" xmlns="http://www.w3.org/2000/svg" p-id="1832" xmlns:xlink="http://www.w3.org/1999/xlink" width="16" height="16"><defs><style type="text/css"></style></defs><path d="M547.97734839 592.37377845c11.19691433-7.56911398 19.9752951-16.14594973 29.35830845-23.98378983q46.19846751-38.51738443 92.15060283-77.30349499a30.14209287 30.14209287 0 0 0 11.42085251-23.91660874v-56.54441629a8.95753098 8.95753098 0 0 0-4.32200884-8.37529157c-32.02317418-21.76680129-44.94441275-66.66642609-29.87336674-102.49655163 20.9606229-49.73669275 78.04249146-69.28650466 124.59926019-41.92124662a85.09654715 85.09654715 0 0 1 40.19692154 90.13515848 83.34982809 83.34982809 0 0 1-40.75676779 58.2239534 7.3675698 7.3675698 0 0 0-3.58301237 7.4571449c0 16.99691527 0.22393818 33.97143741 0 50.94595954-0.58223941 38.45020331-15.51892319 69.95831918-45.32510799 94.56913561-27.18610702 22.39382785-53.92433852 45.41468391-80.90890137 68.07723786q-36.16603282 30.25406195-72.55600295 60.50812391c-5.86718289 4.90424827-11.6223967 9.92046561-17.55676154 14.75753274a7.3675698 7.3675698 0 0 0-2.86640992 6.29266607v56.54441547a7.21081274 7.21081274 0 0 0 4.47876591 6.94208743c23.82703281 13.66023504 37.89035706 34.32973865 42.72742337 61.17993842 10.07722267 55.98457004-39.79383234 107.490375-96.13670363 99.60774773-41.15985617-5.77760779-71.48109923-37.10657346-74.79538631-78.37839871-2.86640992-35.69576249 11.98069793-62.90426349 42.14518478-81.80465404a9.22625711 9.22625711 0 0 0 5.08339848-8.95753181q-0.15675705-167.95371094-0.11196909-335.9074227c0-1.58996201 0.82857157-3.76216342-0.91814667-4.61312813s-2.91119788 1.16447882-4.14285863 2.23938254q-58.87337393 49.4903606-117.65717276 99.09268944a27.47722715 27.47722715 0 0 0-10.14440461 21.11737994c-0.20154419 18.65405923 0 37.30811765-0.17915022 55.98457087 0 3.85173852 2.10501947 5.53127564 4.94903623 7.32278183a85.83554361 85.83554361 0 0 1 33.41159116 106.01238208c-13.6154479 31.64247894-38.06950807 49.53514774-72.51121583 52.89422277A85.2533042 85.2533042 0 0 1 211.48768628 692.40700857c-3.51583127-33.09807788 8.1513534-60.03785358 34.84479611-80.05793581a13.43629689 13.43629689 0 0 0 6.02393994-12.09266702c0.11196907-20.15444531-0.96293463-40.30889063 0.62702738-60.46333594 2.73204683-34.41931376 17.91506277-62.07569193 44.36217335-84.08882456 30.63475718-25.57375186 60.66488013-51.8641062 91.52357546-77.14673875 24.49884815-20.15444531 48.14673074-41.24943126 72.95909299-60.97839343 6.53899822-5.21776236 10.41312991-10.45791788 9.78610253-19.52741873-0.89575351-13.01081451-0.24633217-26.11120331 0-39.166805a7.63629511 7.63629511 0 0 0-4.23243374-7.65868907Q427.85685411 228.31731329 423.98272159 182.81305513A85.70118054 85.70118054 0 0 1 492.46304785 91.78214313c49.73669275-9.42780129 95.64404013 22.39382785 102.85485288 72.48882184 4.9714302 34.93437204-10.70425003 68.30117605-42.68263623 87.0224164a8.50965463 8.50965463 0 0 0-4.74749203 8.48726065q0.13436306 163.47494587 0 326.94989174z m-38.20387115 292.93366638a38.69653546 38.69653546 0 0 0 38.49499043-37.84556992c0.20154419-20.46795859-17.48957958-38.06950807-38.06950808-38.20387114a38.18147717 38.18147717 0 0 0-38.45020248 37.68881285 37.48726868 37.48726868 0 0 0 38.02472013 38.36062821z m0-746.78938193a37.5544498 37.5544498 0 0 0-38.06950808 37.86796307 38.31584025 38.31584025 0 0 0 38.06950808 38.06950809c20.37838348 0 38.67414148-17.62394266 38.56217239-37.86796308-0.15675705-19.05714761-15.74286135-38.80850455-38.6517475-38.06950808z m217.22013336 155.61471177a37.19614857 37.19614857 0 0 0-38.22626515 37.62163173c0 20.51274655 17.1984603 38.22626431 37.37529958 38.29344544a38.06950807 38.06950807 0 0 0 38.65174752-38.06950727 36.99460437 36.99460437 0 0 0-37.84556992-37.8455699zM334.90007285 682.19542285a38.06950807 38.06950807 0 1 0-38.06950809 38.20387117 38.51738443 38.51738443 0 0 0 38.06950809-38.20387116z" fill="#e6e6e6" p-id="1833"></path></svg>